<svg fill="none" height="18" width="18" xmlns="http://www.w3.org/2000/svg" xmlns:xlink="http://www.w3.org/1999/xlink"><mask id="a" fill="#fff"><path d="m9 17.1c4.971 0 9-3.828 9-8.55s-4.029-8.55-9-8.55-9 3.828-9 8.55a8.21 8.21 0 0 0 1.498 4.725c.097.139.124.316.065.474l-1.28 3.482c-.129.351.158.71.527.649 1.295-.214 3.417-.655 4.749-1.261a.54.54 0 0 1 .398-.02 9.41 9.41 0 0 0 3.043.501z" fill="#fff" fill-rule="evenodd"/></mask><path d="m5.559 16.619.414.91zm.398-.02-.323.946zm-5.147 1.281.163.986zm.688-4.605-.82.573zm15.502-4.725c0 4.122-3.533 7.55-8 7.55v2c5.474 0 10-4.228 10-9.55zm-8-7.55c4.467 0 8 3.428 8 7.55h2c0-5.322-4.526-9.55-10-9.55zm-8 7.55c0-4.122 3.533-7.55 8-7.55v-2c-5.474 0-10 4.228-10 9.55zm1.317 4.151a7.21 7.21 0 0 1 -1.317-4.151h-2a9.21 9.21 0 0 0 1.678 5.298l1.639-1.146zm-1.096 4.874 1.28-3.482-1.877-.69-1.28 3.482zm3.923-1.867c-1.2.546-3.206.97-4.498 1.185l.327 1.973c1.297-.215 3.536-.671 5-1.337l-.828-1.82zm3.856.392a8.41 8.41 0 0 1 -2.721-.448l-.646 1.893a10.41 10.41 0 0 0 3.367.555zm-3.027 1.429a.46.46 0 0 1 -.339.016l.646-1.893a1.54 1.54 0 0 0 -1.135.057zm-6.629-.644c-.382 1.04.471 2.173 1.629 1.981l-.327-1.973a.52.52 0 0 1 .575.682zm1.334-3.038c-.08-.115-.114-.279-.054-.444l1.877.69c.177-.482.09-1-.184-1.393l-1.639 1.148z" fill="#3e4153" mask="url(#a)"/></svg>